<svg xmlns="http://www.w3.org/2000/svg" width="1200" height="360" viewBox="0 0 1200 360" role="img" aria-label="Tech stack: backend, frontend, database, devops">
<title>Tech Stack</title><defs><linearGradient id="bg" x1="0" y1="0" x2="1" y2="1"><stop offset="0" stop-color="#0b1020"/><stop offset="1" stop-color="#111a33"/></linearGradient>
<linearGradient id="ac" x1="0" y1="0" x2="1" y2="0"><stop offset="0" stop-color="#58a6ff"/><stop offset="1" stop-color="#ff5d73"/></linearGradient></defs><style>.fade{opacity:0;animation:f .6s ease forwards}@keyframes f{to{opacity:1}}</style>
<rect width="1200" height="360" rx="24" fill="url(#bg)"/><g transform="translate(40,30)"><text x="0" y="20" class="mono" style="font-family:'SFMono-Regular',Consolas,'Courier New',monospace;font-size:13px;font-weight:700" fill="#ff9a3c" letter-spacing="2.5">BACKEND</text><g class="fade" style="animation-delay:0.3s"><rect x="0" y="50" width="240" height="30" rx="15" fill="#ff9a3c" fill-opacity=".12" stroke="#ff9a3c" stroke-opacity=".5"/><circle cx="18" cy="65" r="4" fill="#ff9a3c"/><text x="34" y="70" style="font-family:'Segoe UI',Helvetica,Arial,sans-serif;font-size:14px;font-weight:600" fill="#e6edf7">Java</text></g><g class="fade" style="animation-delay:0.37s"><rect x="0" y="88" width="240" height="30" rx="15" fill="#ff9a3c" fill-opacity=".12" stroke="#ff9a3c" stroke-opacity=".5"/><circle cx="18" cy="103" r="4" fill="#ff9a3c"/><text x="34" y="108" style="font-family:'Segoe UI',Helvetica,Arial,sans-serif;font-size:14px;font-weight:600" fill="#e6edf7">Spring Boot</text></g><g class="fade" style="animation-delay:0.44s"><rect x="0" y="126" width="240" height="30" rx="15" fill="#ff9a3c" fill-opacity=".12" stroke="#ff9a3c" stroke-opacity=".5"/><circle cx="18" cy="141" r="4" fill="#ff9a3c"/><text x="34" y="146" style="font-family:'Segoe UI',Helvetica,Arial,sans-serif;font-size:14px;font-weight:600" fill="#e6edf7">Hibernate</text></g><g class="fade" style="animation-delay:0.51s"><rect x="0" y="164" width="240" height="30" rx="15" fill="#ff9a3c" fill-opacity=".12" stroke="#ff9a3c" stroke-opacity=".5"/><circle cx="18" cy="179" r="4" fill="#ff9a3c"/><text x="34" y="184" style="font-family:'Segoe UI',Helvetica,Arial,sans-serif;font-size:14px;font-weight:600" fill="#e6edf7">Microservices</text></g><g class="fade" style="animation-delay:0.5800000000000001s"><rect x="0" y="202" width="240" height="30" rx="15" fill="#ff9a3c" fill-opacity=".12" stroke="#ff9a3c" stroke-opacity=".5"/><circle cx="18" cy="217" r="4" fill="#ff9a3c"/><text x="34" y="222" style="font-family:'Segoe UI',Helvetica,Arial,sans-serif;font-size:14px;font-weight:600" fill="#e6edf7">Kafka</text></g><g class="fade" style="animation-delay:0.65s"><rect x="0" y="240" width="240" height="30" rx="15" fill="#ff9a3c" fill-opacity=".12" stroke="#ff9a3c" stroke-opacity=".5"/><circle cx="18" cy="255" r="4" fill="#ff9a3c"/><text x="34" y="260" style="font-family:'Segoe UI',Helvetica,Arial,sans-serif;font-size:14px;font-weight:600" fill="#e6edf7">REST APIs</text></g><g class="fade" style="animation-delay:0.72s"><rect x="0" y="278" width="240" height="30" rx="15" fill="#ff9a3c" fill-opacity=".12" stroke="#ff9a3c" stroke-opacity=".5"/><circle cx="18" cy="293" r="4" fill="#ff9a3c"/><text x="34" y="298" style="font-family:'Segoe UI',Helvetica,Arial,sans-serif;font-size:14px;font-weight:600" fill="#e6edf7">Maven</text></g></g><g transform="translate(325,30)"><text x="0" y="20" class="mono" style="font-family:'SFMono-Regular',Consolas,'Courier New',monospace;font-size:13px;font-weight:700" fill="#58a6ff" letter-spacing="2.5">FRONTEND</text><g class="fade" style="animation-delay:0.44999999999999996s"><rect x="0" y="50" width="240" height="30" rx="15" fill="#58a6ff" fill-opacity=".12" stroke="#58a6ff" stroke-opacity=".5"/><circle cx="18" cy="65" r="4" fill="#58a6ff"/><text x="34" y="70" style="font-family:'Segoe UI',Helvetica,Arial,sans-serif;font-size:14px;font-weight:600" fill="#e6edf7">React</text></g><g class="fade" style="animation-delay:0.52s"><rect x="0" y="88" width="240" height="30" rx="15" fill="#58a6ff" fill-opacity=".12" stroke="#58a6ff" stroke-opacity=".5"/><circle cx="18" cy="103" r="4" fill="#58a6ff"/><text x="34" y="108" style="font-family:'Segoe UI',Helvetica,Arial,sans-serif;font-size:14px;font-weight:600" fill="#e6edf7">Angular</text></g><g class="fade" style="animation-delay:0.59s"><rect x="0" y="126" width="240" height="30" rx="15" fill="#58a6ff" fill-opacity=".12" stroke="#58a6ff" stroke-opacity=".5"/><circle cx="18" cy="141" r="4" fill="#58a6ff"/><text x="34" y="146" style="font-family:'Segoe UI',Helvetica,Arial,sans-serif;font-size:14px;font-weight:600" fill="#e6edf7">TypeScript</text></g><g class="fade" style="animation-delay:0.6599999999999999s"><rect x="0" y="164" width="240" height="30" rx="15" fill="#58a6ff" fill-opacity=".12" stroke="#58a6ff" stroke-opacity=".5"/><circle cx="18" cy="179" r="4" fill="#58a6ff"/><text x="34" y="184" style="font-family:'Segoe UI',Helvetica,Arial,sans-serif;font-size:14px;font-weight:600" fill="#e6edf7">JavaScript</text></g><g class="fade" style="animation-delay:0.73s"><rect x="0" y="202" width="240" height="30" rx="15" fill="#58a6ff" fill-opacity=".12" stroke="#58a6ff" stroke-opacity=".5"/><circle cx="18" cy="217" r="4" fill="#58a6ff"/><text x="34" y="222" style="font-family:'Segoe UI',Helvetica,Arial,sans-serif;font-size:14px;font-weight:600" fill="#e6edf7">HTML5</text></g><g class="fade" style="animation-delay:0.8s"><rect x="0" y="240" width="240" height="30" rx="15" fill="#58a6ff" fill-opacity=".12" stroke="#58a6ff" stroke-opacity=".5"/><circle cx="18" cy="255" r="4" fill="#58a6ff"/><text x="34" y="260" style="font-family:'Segoe UI',Helvetica,Arial,sans-serif;font-size:14px;font-weight:600" fill="#e6edf7">CSS3</text></g></g><g transform="translate(610,30)"><text x="0" y="20" class="mono" style="font-family:'SFMono-Regular',Consolas,'Courier New',monospace;font-size:13px;font-weight:700" fill="#3fb950" letter-spacing="2.5">DATABASE</text><g class="fade" style="animation-delay:0.6s"><rect x="0" y="50" width="240" height="30" rx="15" fill="#3fb950" fill-opacity=".12" stroke="#3fb950" stroke-opacity=".5"/><circle cx="18" cy="65" r="4" fill="#3fb950"/><text x="34" y="70" style="font-family:'Segoe UI',Helvetica,Arial,sans-serif;font-size:14px;font-weight:600" fill="#e6edf7">MySQL</text></g><g class="fade" style="animation-delay:0.6699999999999999s"><rect x="0" y="88" width="240" height="30" rx="15" fill="#3fb950" fill-opacity=".12" stroke="#3fb950" stroke-opacity=".5"/><circle cx="18" cy="103" r="4" fill="#3fb950"/><text x="34" y="108" style="font-family:'Segoe UI',Helvetica,Arial,sans-serif;font-size:14px;font-weight:600" fill="#e6edf7">MongoDB</text></g><g class="fade" style="animation-delay:0.74s"><rect x="0" y="126" width="240" height="30" rx="15" fill="#3fb950" fill-opacity=".12" stroke="#3fb950" stroke-opacity=".5"/><circle cx="18" cy="141" r="4" fill="#3fb950"/><text x="34" y="146" style="font-family:'Segoe UI',Helvetica,Arial,sans-serif;font-size:14px;font-weight:600" fill="#e6edf7">MSSQL</text></g></g><g transform="translate(895,30)"><text x="0" y="20" class="mono" style="font-family:'SFMono-Regular',Consolas,'Courier New',monospace;font-size:13px;font-weight:700" fill="#ff5d73" letter-spacing="2.5">DEVOPS &amp; TOOLS</text><g class="fade" style="animation-delay:0.75s"><rect x="0" y="50" width="240" height="30" rx="15" fill="#ff5d73" fill-opacity=".12" stroke="#ff5d73" stroke-opacity=".5"/><circle cx="18" cy="65" r="4" fill="#ff5d73"/><text x="34" y="70" style="font-family:'Segoe UI',Helvetica,Arial,sans-serif;font-size:14px;font-weight:600" fill="#e6edf7">Docker</text></g><g class="fade" style="animation-delay:0.8200000000000001s"><rect x="0" y="88" width="240" height="30" rx="15" fill="#ff5d73" fill-opacity=".12" stroke="#ff5d73" stroke-opacity=".5"/><circle cx="18" cy="103" r="4" fill="#ff5d73"/><text x="34" y="108" style="font-family:'Segoe UI',Helvetica,Arial,sans-serif;font-size:14px;font-weight:600" fill="#e6edf7">AWS</text></g><g class="fade" style="animation-delay:0.89s"><rect x="0" y="126" width="240" height="30" rx="15" fill="#ff5d73" fill-opacity=".12" stroke="#ff5d73" stroke-opacity=".5"/><circle cx="18" cy="141" r="4" fill="#ff5d73"/><text x="34" y="146" style="font-family:'Segoe UI',Helvetica,Arial,sans-serif;font-size:14px;font-weight:600" fill="#e6edf7">CI/CD</text></g><g class="fade" style="animation-delay:0.96s"><rect x="0" y="164" width="240" height="30" rx="15" fill="#ff5d73" fill-opacity=".12" stroke="#ff5d73" stroke-opacity=".5"/><circle cx="18" cy="179" r="4" fill="#ff5d73"/><text x="34" y="184" style="font-family:'Segoe UI',Helvetica,Arial,sans-serif;font-size:14px;font-weight:600" fill="#e6edf7">Git</text></g><g class="fade" style="animation-delay:1.03s"><rect x="0" y="202" width="240" height="30" rx="15" fill="#ff5d73" fill-opacity=".12" stroke="#ff5d73" stroke-opacity=".5"/><circle cx="18" cy="217" r="4" fill="#ff5d73"/><text x="34" y="222" style="font-family:'Segoe UI',Helvetica,Arial,sans-serif;font-size:14px;font-weight:600" fill="#e6edf7">JUnit</text></g><g class="fade" style="animation-delay:1.1s"><rect x="0" y="240" width="240" height="30" rx="15" fill="#ff5d73" fill-opacity=".12" stroke="#ff5d73" stroke-opacity=".5"/><circle cx="18" cy="255" r="4" fill="#ff5d73"/><text x="34" y="260" style="font-family:'Segoe UI',Helvetica,Arial,sans-serif;font-size:14px;font-weight:600" fill="#e6edf7">IntelliJ</text></g></g></svg>